<svg xmlns="http://www.w3.org/2000/svg" width="126" height="49" fill="none"><path fill="#201E1C" d="M46.767 36.96V13.7h3.92v9.537h9.97v-9.538h3.921v23.262h-3.92V26.527h-9.97V36.96h-3.921zm26.876.533c-3.456 0-5.483-2.56-5.483-6.88V20.347h3.822V30.48c0 2.36 1.096 3.689 2.957 3.689 2.493 0 4.12-2.293 4.12-5.75v-8.074h3.822V36.96H79.06v-2.825c-1.03 2.06-2.99 3.357-5.417 3.357zm22.518 0c-2.625 0-4.652-1.396-5.616-3.689v3.157h-3.822V13.699h3.822v9.804c.964-2.293 2.99-3.69 5.616-3.69 4.254 0 7.244 3.656 7.244 8.84 0 5.184-2.99 8.84-7.244 8.84zm-5.583-8.84c0 3.323 1.795 5.517 4.453 5.517 2.659 0 4.453-2.194 4.453-5.517 0-3.323-1.794-5.516-4.453-5.516-2.658 0-4.453 2.193-4.453 5.516zm15.838 8.308V20.346h3.821V36.96h-3.821zm-.366-19.041v-3.922h4.586v3.922h-4.586zm15.214 19.04c-3.555 0-5.316-1.694-5.316-5.083v-8.208h-3.589v-3.323h3.589v-5.35h3.821v5.35h4.985v3.323h-4.985v7.975c0 1.33.665 1.994 1.994 1.994h2.991v3.323h-3.49zM11.969 13.428a2.77 2.77 0 0 1 2.296-1.221h9.665c2.218 0 3.536 2.479 2.295 4.318L17.945 28.8a2.77 2.77 0 0 1-2.296 1.22H5.982c-2.218 0-3.536-2.478-2.295-4.317l8.28-12.275z"/><path fill="#F28A6B" d="M14.98 31.671c-.92 0-1.78.458-2.295 1.22l-.918 1.362c-1.241 1.839.077 4.318 2.295 4.318h10.441c.92 0 1.78-.458 2.296-1.22l8.28-12.275c1.242-1.84-.076-4.318-2.295-4.318h-5.956c-.92 0-1.78.457-2.295 1.22l-5.716 8.473a2.77 2.77 0 0 1-2.296 1.22h-1.54z"/></svg>